<svg xmlns="http://www.w3.org/2000/svg" viewBox="-2 -49 228 228" width="512" height="512"><rect x="-1" y="-48" width="226" height="226" rx="43" fill="#FFFFFF" stroke="#E7E9EE" stroke-width="2"></rect><rect x="7" y="7" width="14" height="14" rx="3.5" fill="#9558B2"></rect><rect x="34" y="10" width="8" height="8" rx="2" fill="#CBCFD7"></rect><rect x="58" y="10" width="8" height="8" rx="2" fill="#CBCFD7"></rect><rect x="82" y="10" width="8" height="8" rx="2" fill="#CBCFD7"></rect><rect x="10" y="34" width="8" height="8" rx="2" fill="#CBCFD7"></rect><rect x="31" y="31" width="14" height="14" rx="3.5" fill="#9558B2"></rect><rect x="58" y="34" width="8" height="8" rx="2" fill="#CBCFD7"></rect><rect x="79" y="31" width="14" height="14" rx="3.5" fill="#9558B2"></rect><rect x="10" y="58" width="8" height="8" rx="2" fill="#CBCFD7"></rect><rect x="34" y="58" width="8" height="8" rx="2" fill="#CBCFD7"></rect><rect x="55" y="55" width="14" height="14" rx="3.5" fill="#9558B2"></rect><rect x="82" y="58" width="8" height="8" rx="2" fill="#CBCFD7"></rect><rect x="7" y="79" width="14" height="14" rx="3.5" fill="#9558B2"></rect><rect x="34" y="82" width="8" height="8" rx="2" fill="#CBCFD7"></rect><rect x="58" y="82" width="8" height="8" rx="2" fill="#CBCFD7"></rect><rect x="82" y="82" width="8" height="8" rx="2" fill="#CBCFD7"></rect><rect x="10" y="106" width="8" height="8" rx="2" fill="#CBCFD7"></rect><rect x="31" y="103" width="14" height="14" rx="3.5" fill="#9558B2"></rect><rect x="58" y="106" width="8" height="8" rx="2" fill="#CBCFD7"></rect><rect x="82" y="106" width="8" height="8" rx="2" fill="#CBCFD7"></rect><rect x="130" y="10" width="8" height="8" rx="2" fill="#CBCFD7"></rect><rect x="151" y="7" width="14" height="14" rx="3.5" fill="#2563EB"></rect><rect x="178" y="10" width="8" height="8" rx="2" fill="#CBCFD7"></rect><rect x="199" y="7" width="14" height="14" rx="3.5" fill="#2563EB"></rect><rect x="130" y="34" width="8" height="8" rx="2" fill="#CBCFD7"></rect><rect x="154" y="34" width="8" height="8" rx="2" fill="#CBCFD7"></rect><rect x="175" y="31" width="14" height="14" rx="3.5" fill="#2563EB"></rect><rect x="202" y="34" width="8" height="8" rx="2" fill="#CBCFD7"></rect><rect x="127" y="55" width="14" height="14" rx="3.5" fill="#2563EB"></rect><rect x="154" y="58" width="8" height="8" rx="2" fill="#CBCFD7"></rect><rect x="178" y="58" width="8" height="8" rx="2" fill="#CBCFD7"></rect><rect x="202" y="58" width="8" height="8" rx="2" fill="#CBCFD7"></rect><rect x="130" y="82" width="8" height="8" rx="2" fill="#CBCFD7"></rect><rect x="151" y="79" width="14" height="14" rx="3.5" fill="#2563EB"></rect><rect x="178" y="82" width="8" height="8" rx="2" fill="#CBCFD7"></rect><rect x="202" y="82" width="8" height="8" rx="2" fill="#CBCFD7"></rect><rect x="130" y="106" width="8" height="8" rx="2" fill="#CBCFD7"></rect><rect x="154" y="106" width="8" height="8" rx="2" fill="#CBCFD7"></rect><rect x="175" y="103" width="14" height="14" rx="3.5" fill="#2563EB"></rect><rect x="202" y="106" width="8" height="8" rx="2" fill="#CBCFD7"></rect><line x1="110" y1="6" x2="110" y2="126" stroke="#1B1F2A" stroke-width="5" stroke-linecap="round"></line></svg>