<svg xmlns="http://www.w3.org/2000/svg" viewBox="0 0 1280 640" width="1280" height="640">
  <rect width="1280" height="640" fill="#1B1F2A"></rect>
  <g transform="translate(441,86) scale(1.72)"><rect x="7" y="7" width="14" height="14" rx="3.5" fill="#A56BC4"></rect><rect x="34" y="10" width="8" height="8" rx="2" fill="#4A5162"></rect><rect x="58" y="10" width="8" height="8" rx="2" fill="#4A5162"></rect><rect x="82" y="10" width="8" height="8" rx="2" fill="#4A5162"></rect><rect x="10" y="34" width="8" height="8" rx="2" fill="#4A5162"></rect><rect x="31" y="31" width="14" height="14" rx="3.5" fill="#A56BC4"></rect><rect x="58" y="34" width="8" height="8" rx="2" fill="#4A5162"></rect><rect x="79" y="31" width="14" height="14" rx="3.5" fill="#A56BC4"></rect><rect x="10" y="58" width="8" height="8" rx="2" fill="#4A5162"></rect><rect x="34" y="58" width="8" height="8" rx="2" fill="#4A5162"></rect><rect x="55" y="55" width="14" height="14" rx="3.5" fill="#A56BC4"></rect><rect x="82" y="58" width="8" height="8" rx="2" fill="#4A5162"></rect><rect x="7" y="79" width="14" height="14" rx="3.5" fill="#A56BC4"></rect><rect x="34" y="82" width="8" height="8" rx="2" fill="#4A5162"></rect><rect x="58" y="82" width="8" height="8" rx="2" fill="#4A5162"></rect><rect x="82" y="82" width="8" height="8" rx="2" fill="#4A5162"></rect><rect x="10" y="106" width="8" height="8" rx="2" fill="#4A5162"></rect><rect x="31" y="103" width="14" height="14" rx="3.5" fill="#A56BC4"></rect><rect x="58" y="106" width="8" height="8" rx="2" fill="#4A5162"></rect><rect x="82" y="106" width="8" height="8" rx="2" fill="#4A5162"></rect><rect x="130" y="10" width="8" height="8" rx="2" fill="#4A5162"></rect><rect x="151" y="7" width="14" height="14" rx="3.5" fill="#4C86F5"></rect><rect x="178" y="10" width="8" height="8" rx="2" fill="#4A5162"></rect><rect x="199" y="7" width="14" height="14" rx="3.5" fill="#4C86F5"></rect><rect x="130" y="34" width="8" height="8" rx="2" fill="#4A5162"></rect><rect x="154" y="34" width="8" height="8" rx="2" fill="#4A5162"></rect><rect x="175" y="31" width="14" height="14" rx="3.5" fill="#4C86F5"></rect><rect x="202" y="34" width="8" height="8" rx="2" fill="#4A5162"></rect><rect x="127" y="55" width="14" height="14" rx="3.5" fill="#4C86F5"></rect><rect x="154" y="58" width="8" height="8" rx="2" fill="#4A5162"></rect><rect x="178" y="58" width="8" height="8" rx="2" fill="#4A5162"></rect><rect x="202" y="58" width="8" height="8" rx="2" fill="#4A5162"></rect><rect x="130" y="82" width="8" height="8" rx="2" fill="#4A5162"></rect><rect x="151" y="79" width="14" height="14" rx="3.5" fill="#4C86F5"></rect><rect x="178" y="82" width="8" height="8" rx="2" fill="#4A5162"></rect><rect x="202" y="82" width="8" height="8" rx="2" fill="#4A5162"></rect><rect x="130" y="106" width="8" height="8" rx="2" fill="#4A5162"></rect><rect x="154" y="106" width="8" height="8" rx="2" fill="#4A5162"></rect><rect x="175" y="103" width="14" height="14" rx="3.5" fill="#4C86F5"></rect><rect x="202" y="106" width="8" height="8" rx="2" fill="#4A5162"></rect><line x1="110" y1="6" x2="110" y2="126" stroke="#FFFFFF" stroke-width="5" stroke-linecap="round"></line></g>
  <text x="640" y="470" text-anchor="middle" font-family="&#39;Poppins&#39;,&#39;Segoe UI&#39;,system-ui,sans-serif" font-size="84" font-weight="700" fill="#FFFFFF" letter-spacing="-1.5">Pauli<tspan fill="#B98BD0">Operators</tspan><tspan fill="#8CB0FF">.jl</tspan></text>
  <text x="640" y="532" text-anchor="middle" font-family="&#39;Poppins&#39;,&#39;Segoe UI&#39;,system-ui,sans-serif" font-size="23" font-weight="500" fill="#8A93A5" letter-spacing="6">EFFICIENT PAULI ALGEBRA FOR QUANTUM COMPUTING</text>
</svg>